<svg width="37" height="37" viewBox="0 0 37 37" fill="none" xmlns="http://www.w3.org/2000/svg">
<path fill-rule="evenodd" clip-rule="evenodd" d="M18.1912 36.5C28.1323 36.5 36.1912 28.4411 36.1912 18.5C36.1912 8.55888 28.1323 0.5 18.1912 0.5C8.25003 0.5 0.191162 8.55888 0.191162 18.5C0.191162 28.4411 8.25003 36.5 18.1912 36.5ZM23.8066 8.88516C24.0799 7.91425 23.1377 7.34012 22.2772 7.95317L10.265 16.5106C9.33177 17.1755 9.47856 18.5 10.4855 18.5H13.6486V18.4755H19.8134L14.7903 20.2479L12.5758 28.1149C12.3025 29.0858 13.2446 29.6599 14.1052 29.0468L26.1174 20.4894C27.0506 19.8246 26.9037 18.5 25.8969 18.5H21.1001L23.8066 8.88516Z" fill="black"/>
</svg>
